<?xml version="1.0" encoding="utf-8"?>
<!-- Generator: Adobe Illustrator 16.0.0, SVG Export Plug-In . SVG Version: 6.00 Build 0)  -->
<!DOCTYPE svg PUBLIC "-//W3C//DTD SVG 1.1//EN" "http://www.w3.org/Graphics/SVG/1.1/DTD/svg11.dtd">
<svg version="1.1" id="Capa_1" xmlns="http://www.w3.org/2000/svg" xmlns:xlink="http://www.w3.org/1999/xlink" x="0px" y="0px"
	 width="235.811px" height="233.988px" viewBox="0 0 235.811 233.988" enable-background="new 0 0 235.811 233.988"
	 xml:space="preserve">
<g>
	<path fill="#E6D629" d="M80.046,27.16c0,0,22.306,35.049,24.005,32.5s1.488-9.56,1.488-9.56s9.135,23.369,12.957,25.069
		c3.821,1.696,13.383,0.847,19.119-1.914c5.733-2.762,29.807-17.854,29.807-17.854s-27.473,32.51-23.227,40.37
		c4.252,7.86,55.656-8.92,55.656-8.92s-16.992,9.559-12.957,10.62c4.037,1.062,11.682-1.062,11.682-1.062
		s-36.748,7.646-37.384,15.081c-0.638,7.436,9.135,11.896,9.135,11.896s-25.49,0.636-20.181,28.462
		c5.311,27.828,11.471,43.973,11.471,43.973s-10.408-18.481-10.408-15.295c0,3.186,3.398,15.933,3.398,15.933
		s-11.685-22.095-11.685-19.757c0,2.337-24.64-38.234-29.739-32.074c-5.099,6.159-23.115,40.944-23.115,40.944
		s8.885-49.443,2.087-49.019c-6.797,0.427-41.423,13.172-56.292,18.271c0,0,24.854-13.171,18.057-14.021c-6.8-0.851-14.66,0-14.66,0
		s22.305-3.822,27.19-9.133c4.886-5.312,13.171-25.918-2.761-34.628c0,0,15.718,5.947,15.082,1.7S64.54,77.076,64.54,77.076
		s19.967,11.895,19.755,3.187c-0.212-8.71-9.135-32.926-9.135-32.926s11.898,16.356,13.172,9.771S80.046,27.16,80.046,27.16z"/>
	<path fill="#CF7233" d="M155.379,97.158c0.74-12.753-10.614-23.893-28.426-18.387c-2.944-3.311-15.723-15.719-36.339-8.317
		c-23.655,8.491-23.653,35.178-15.769,41.244c0.055,0.041,0.104,0.069,0.162,0.11c-4.926,2.015-9.649,6.813-11.082,17.478
		c-2.957,22.055,21.031,25.257,34.114,19.353c-1.432,7.167-0.768,16.962,10.466,23.104c16.296,8.911,35.576-3.98,39.729-16.423
		c1.238,0.941,2.813,1.562,4.85,1.562c6.071,0,13.951-5.761,13.269-14.863c4.698,0.609,17.173,0.724,21.607-15.461
		C194.025,104.418,170.883,93.728,155.379,97.158z"/>
	<path fill="#E6D629" d="M76.664,94.412c0,0-1.818-15.163,17.286-20.622c19.105-5.46,28.506,8.188,28.506,8.188
		s10.919-4.246,18.501-1.517c7.578,2.729,13.342,12.132,11.521,19.106c0,0-3.337-16.984-20.318-15.771
		c-16.982,1.213-15.162,3.337-15.162,3.337s13.342-1.82,18.195,8.793c0,0-15.771-9.098-30.934-3.032c0,0,2.73-4.852,7.885-5.761
		c0,0-7.631-10.789-15.818-9.88C88.139,78.164,81.818,80.765,76.664,94.412z"/>
	<path fill="#CF7233" d="M145.759,80.993c0,0,60.079-43.838,56.841-38.028c-3.239,5.808-47.676,48.251-47.676,48.251L145.759,80.993
		z"/>
	<path fill="#CF7233" d="M71.361,141.35c0,0-39.121,39.726-18.802,25.474c20.318-14.252,25.473-19.409,25.473-19.409L71.361,141.35z
		"/>
	<path fill="#CF7233" d="M141.872,161.45c0,0,29.105,26.972,29.41,25.76c0.301-1.214-26.384-37.604-26.384-37.604
		S140.969,159.65,141.872,161.45z"/>
	<path fill="#CF7233" d="M80.304,78.643c0,0-16.073-21.531-9.099-16.377c6.975,5.156,15.162,13.04,15.162,13.04L80.304,78.643z"/>
	<path fill="#E6D629" d="M57.355,93.389c0,0-25.338-14.547-24.398-12.436C33.895,83.066,50.318,90.104,57.355,93.389z"/>
	<path fill="#E6D629" d="M202.118,94.798c-10.133,1.147-10.004,1.713-8.682,1.878C197.191,97.143,205.402,94.798,202.118,94.798z"/>
	<path fill="#E6D629" d="M137.068,65.02c0,0,14.947-19.461,11.846-19.461C145.811,45.559,137.068,65.02,137.068,65.02z"/>
	<path fill="#E6D629" d="M156.528,101.403c0,0,7.052-2.821,16.359,1.692s10.436,17.487,2.255,24.256c0,0,0.284-2.539-3.946-8.463
		c-4.23-5.922,0.848,3.385-0.283,8.463c-1.128,5.077-3.947,9.023-3.947,9.023s5.078-0.28,12.69-5.356
		c6.664-4.443,7.599-31.614-12.893-31.657C163.837,99.353,159.793,99.453,156.528,101.403z"/>
	<path fill="#C85634" d="M77.295,113.565c0,0-12.272,6.263-10.27,18.533c2.004,12.271,14.774,20.785,31.805,14.273l2.756-1.502
		c0,0-4.26,18.53,8.264,24.04c12.521,5.511,31.552-0.25,32.555-15.276c0,0,8.514,4.01,14.774-2.753
		c6.263-6.762,5.26-9.265,5.26-9.265s-5.26,10.268-15.024,7.511c0,0,4.757-3.005,3.754-8.515c0,0-9.014,14.275-20.032,10.269
		c0,0,4.257,3.255,7.263,3.255c0,0-8.766,15.526-23.041,10.519c-14.271-5.009-10.016-21.037-10.016-21.037s4.758,4.006,12.02,4.006
		c0,0-11.268-5.008-16.025-15.777c0,0-0.25,4.01,2.251,8.767c0,0-14.774,8.014-27.296,0.252
		C63.77,133.1,73.289,116.822,77.295,113.565z"/>
	<path fill="#C85634" d="M88.812,114.568c0,0-0.498,4.007,4.008,8.764C97.326,128.09,84.054,121.08,88.812,114.568z"/>
	<path fill="#E6D629" d="M121.871,107.555c0,0,14.023-2.252,18.279,7.265c4.258,9.516,3.507,11.269,3.507,11.269
		s4.673-11.78-4.757-19.033C132.388,102.045,121.871,107.555,121.871,107.555z"/>
</g>
</svg>
